<svg width="17" height="16" viewBox="0 0 17 16" fill="none" xmlns="http://www.w3.org/2000/svg">
<path d="M7.32205 0.609785C7.70105 -0.0851558 8.69891 -0.0851549 9.07791 0.609786L10.9634 4.06698C11.1072 4.3307 11.3619 4.5158 11.6572 4.57109L15.5278 5.29593C16.3059 5.44163 16.6142 6.39065 16.0704 6.96584L13.3651 9.82734C13.1587 10.0456 13.0614 10.3451 13.1 10.643L13.6068 14.5482C13.7086 15.3332 12.9013 15.9197 12.1863 15.5802L8.62881 13.8916C8.35744 13.7627 8.04253 13.7627 7.77115 13.8916L4.21371 15.5802C3.49862 15.9197 2.69133 15.3332 2.79319 14.5482L3.29992 10.643C3.33858 10.3451 3.24127 10.0456 3.03489 9.82734L0.329543 6.96584C-0.214268 6.39065 0.0940872 5.44163 0.872133 5.29593L4.74275 4.57109C5.03801 4.5158 5.29278 4.3307 5.43661 4.06698L7.32205 0.609785Z" fill="#F9C164"/>
</svg>
